<?xml version="1.0" standalone="no"?>
<!DOCTYPE svg PUBLIC "-//W3C//DTD SVG 20010904//EN"
 "http://www.w3.org/TR/2001/REC-SVG-20010904/DTD/svg10.dtd">
<svg version="1.0" xmlns="http://www.w3.org/2000/svg"
 width="600.000000pt" height="600.000000pt" viewBox="0 0 600.000000 600.000000"
 preserveAspectRatio="xMidYMid meet">
<metadata>
Created by potrace 1.16, written by Peter Selinger 2001-2019
</metadata>
<g transform="translate(0.000000,600.000000) scale(0.100000,-0.100000)"
fill="#000000" stroke="none">
<path d="M2167 4580 c-176 -28 -346 -119 -487 -260 -144 -144 -223 -305 -237
-478 l-6 -78 -71 -41 c-94 -55 -127 -62 -244 -56 -113 7 -162 -9 -187 -58 -34
-66 -9 -133 83 -224 135 -131 258 -184 457 -193 134 -6 133 -5 178 -97 41 -84
41 -114 2 -284 -110 -476 -102 -716 30 -1006 18 -38 53 -101 79 -139 25 -38
45 -70 43 -72 -1 -2 -32 -8 -68 -13 -146 -24 -258 -82 -329 -172 -22 -28 -40
-54 -40 -58 0 -4 -27 -5 -59 -3 -140 10 -417 -88 -386 -138 9 -15 34 -12 69 9
17 11 67 32 111 47 171 59 385 22 508 -86 36 -31 61 -38 72 -19 16 26 -94 109
-197 149 l-68 26 30 41 c52 71 144 121 269 148 119 25 136 22 189 -32 119
-119 312 -231 502 -291 296 -94 698 -115 981 -53 259 58 500 181 705 360 77
67 84 71 130 71 91 0 275 -52 274 -77 -1 -4 -28 -25 -60 -45 -58 -36 -75 -63
-46 -74 8 -3 50 16 93 42 93 56 153 84 253 115 65 20 95 24 220 23 130 0 153
-2 225 -27 44 -14 115 -47 159 -73 71 -41 80 -44 94 -30 22 21 9 34 -95 88
-153 81 -204 93 -383 93 -164 0 -199 -6 -337 -61 l-61 -25 -64 35 c-64 35
-179 66 -242 66 l-36 0 64 79 c135 167 235 370 291 592 27 107 77 398 96 561
21 176 -12 306 -102 403 -58 62 -91 78 -165 79 -77 0 -137 -28 -262 -123 -116
-88 -176 -122 -282 -159 -166 -58 -338 -81 -474 -63 -160 22 -443 106 -516
155 -64 42 -62 60 16 168 122 169 158 274 158 463 0 93 -5 139 -23 205 -92
350 -364 582 -696 595 -55 2 -126 0 -158 -5z m258 -95 c241 -50 438 -249 511
-516 25 -89 25 -282 0 -364 -23 -78 -74 -172 -141 -257 -60 -76 -73 -118 -55
-172 27 -83 137 -143 387 -211 177 -49 234 -58 363 -58 257 0 485 76 694 233
134 100 159 113 217 114 84 2 154 -81 180 -212 14 -75 9 -145 -26 -372 -57
-368 -112 -546 -229 -744 -218 -367 -581 -619 -1005 -698 -151 -28 -440 -30
-606 -5 -428 66 -732 246 -905 538 -93 157 -142 334 -142 519 -1 132 10 210
58 435 63 290 63 311 -2 434 l-33 64 22 18 c12 10 25 18 30 19 17 0 47 68 47
106 0 51 -24 88 -115 174 -48 46 -76 83 -96 127 -16 34 -33 64 -39 68 -15 9
-12 120 5 191 88 375 509 647 880 569z m-926 -872 c25 -53 51 -86 117 -149 73
-69 85 -85 82 -109 -6 -53 -45 -70 -172 -73 -150 -5 -248 20 -351 89 -105 71
-176 155 -162 192 8 21 44 25 127 15 92 -11 170 8 260 62 36 22 66 39 66 40 1
0 16 -30 33 -67z"/>
<path d="M1892 3963 c-30 -12 -56 -87 -57 -159 0 -77 18 -114 57 -114 55 0 89
53 89 141 1 96 -38 154 -89 132z"/>
<path d="M2784 2801 c-136 -22 -253 -80 -351 -177 -190 -186 -213 -442 -59
-659 178 -248 576 -329 969 -196 185 63 382 185 512 317 138 140 196 260 202
419 4 90 2 104 -19 140 -28 49 -94 85 -155 85 -23 0 -88 -7 -144 -16 -75 -12
-142 -15 -248 -11 -132 4 -163 9 -322 50 -184 47 -297 61 -385 48z m373 -137
c163 -42 191 -46 328 -51 109 -4 178 -1 254 11 134 20 174 20 200 -1 30 -25
41 -83 30 -154 -17 -104 -19 -106 -95 -114 -100 -11 -387 1 -482 20 -84 16
-102 15 -102 -10 0 -23 28 -32 155 -50 86 -12 169 -16 293 -13 94 2 172 0 172
-3 0 -4 -19 -33 -43 -65 -48 -64 -148 -161 -209 -201 -37 -25 -42 -26 -151
-20 -62 4 -150 13 -197 21 -134 24 -135 24 -138 -1 -2 -14 3 -23 15 -27 40
-11 144 -28 247 -39 l108 -12 -98 -47 c-178 -85 -373 -127 -532 -114 -98 8
-236 46 -306 84 -159 86 -258 258 -242 421 16 173 168 342 356 395 127 35 207
30 437 -30z"/>
<path d="M4201 1900 c-25 -38 -77 -106 -115 -150 -214 -243 -471 -391 -780
-447 -114 -21 -443 -23 -561 -4 -177 28 -361 84 -489 148 -37 19 -70 32 -73
29 -19 -19 300 -140 447 -170 185 -37 433 -47 615 -25 321 39 605 190 838 446
90 100 192 244 170 242 -5 0 -28 -31 -52 -69z"/>
<path d="M5183 2520 c-31 -13 -56 -65 -48 -101 17 -78 141 -94 174 -22 23 50
9 93 -39 118 -32 17 -54 18 -87 5z"/>
<path d="M5510 2299 c-63 -25 -91 -82 -70 -143 34 -103 198 -91 224 16 8 35
-15 92 -46 111 -32 21 -79 28 -108 16z"/>
<path d="M5136 2046 c-57 -21 -96 -65 -103 -114 -7 -55 2 -85 38 -126 58 -67
180 -70 251 -7 26 23 32 37 36 84 4 50 1 63 -22 97 -44 66 -126 93 -200 66z
m142 -81 c78 -84 -1 -189 -117 -155 -46 13 -69 36 -77 77 -9 49 9 81 59 104
55 25 94 18 135 -26z"/>
<path d="M728 2034 c-85 -45 -71 -177 20 -205 79 -23 152 26 152 103 0 89 -94
145 -172 102z"/>
<path d="M1022 1734 c-65 -33 -97 -102 -81 -174 19 -84 67 -120 161 -120 159
1 225 166 109 275 -27 25 -41 30 -94 32 -44 3 -72 -1 -95 -13z m146 -50 c28
-19 52 -65 52 -98 0 -14 -13 -40 -28 -57 -24 -27 -37 -33 -85 -37 -52 -4 -58
-2 -87 26 -24 24 -30 39 -30 72 0 23 5 50 10 60 25 46 123 66 168 34z"/>
</g>
</svg>
