<?xml version="1.0" standalone="no"?>
<!DOCTYPE svg PUBLIC "-//W3C//DTD SVG 20010904//EN"
 "http://www.w3.org/TR/2001/REC-SVG-20010904/DTD/svg10.dtd">
<svg version="1.0" xmlns="http://www.w3.org/2000/svg"
 width="640.000000pt" height="480.000000pt" viewBox="0 0 640.000000 480.000000"
 preserveAspectRatio="xMidYMid meet">

<g transform="translate(0.000000,480.000000) scale(0.100000,-0.100000)"
fill="#000000" stroke="none">
<path d="M4000 3040 c8 -5 11 -10 5 -11 -23 -2 -47 -8 -52 -13 -7 -7 6 -26 18
-26 6 0 8 4 5 9 -3 5 5 12 19 15 28 7 34 36 8 36 -15 0 -16 -2 -3 -10z"/>
<path d="M3990 2986 c0 -19 21 -26 43 -14 27 14 20 28 -13 28 -19 0 -30 -5
-30 -14z m50 0 c0 -9 -30 -14 -35 -6 -4 6 3 10 14 10 12 0 21 -2 21 -4z"/>
<path d="M4102 2966 c-17 -7 -37 -17 -44 -24 -7 -7 -18 -12 -25 -12 -17 0
-103 -89 -103 -106 0 -7 -4 -15 -9 -19 -6 -3 -16 -18 -24 -34 -11 -22 -12 -52
-5 -152 4 -68 12 -151 17 -184 5 -33 10 -90 10 -127 1 -37 6 -79 11 -94 21
-53 -22 -278 -92 -489 -49 -148 -63 -179 -77 -170 -4 2 -7 -6 -6 -18 1 -12 -1
-29 -6 -37 -14 -29 -72 -216 -92 -295 -17 -69 -20 -112 -19 -310 1 -126 1
-240 2 -253 0 -13 7 -39 15 -59 8 -19 15 -46 15 -60 0 -22 11 -67 72 -283 11
-41 28 -88 36 -105 8 -16 17 -45 19 -64 2 -18 10 -43 18 -55 19 -26 19 -18 0
27 -8 19 -12 37 -9 40 3 3 -3 22 -14 44 -11 21 -29 72 -40 113 -60 215 -72
261 -72 283 0 14 -7 41 -15 60 -8 20 -15 46 -15 59 -1 13 -1 127 -2 253 -1
256 4 286 76 500 21 61 40 119 42 129 2 11 8 23 15 26 17 11 107 284 129 390
33 163 42 244 30 274 -5 15 -10 55 -10 89 -1 34 -5 94 -11 132 -6 39 -14 122
-18 185 -7 113 -7 116 20 168 15 28 41 66 58 83 17 17 31 35 31 40 0 5 6 9 14
9 8 0 37 11 65 25 65 33 141 30 221 -9 81 -39 105 -63 139 -145 33 -78 38
-132 21 -226 -10 -50 -23 -156 -40 -318 -9 -88 1 -189 21 -212 5 -5 9 -25 9
-45 1 -58 46 -234 89 -345 13 -33 36 -91 52 -130 80 -198 114 -331 139 -556
12 -103 6 -314 -8 -323 -4 -2 -7 80 -7 182 0 211 -15 309 -76 502 -8 27 -84
229 -101 270 -6 14 -15 35 -19 48 -5 12 -13 32 -18 45 -32 80 -66 203 -80 292
-7 39 -19 100 -27 136 -10 46 -12 73 -5 91 5 14 15 68 21 119 6 52 15 119 21
149 5 30 12 98 15 151 6 90 5 100 -21 156 -32 74 -72 113 -144 141 -100 40
-222 21 -287 -46 -83 -86 -102 -174 -76 -372 7 -52 17 -133 22 -180 4 -47 12
-100 16 -118 16 -75 -46 -351 -127 -572 -28 -74 -66 -178 -85 -230 -57 -154
-85 -308 -91 -510 -5 -164 -4 -183 21 -305 48 -231 146 -494 202 -546 32 -29
64 -43 64 -29 0 6 -6 10 -13 10 -65 0 -180 270 -243 566 -25 121 -26 140 -21
304 8 244 36 377 127 605 45 112 107 298 126 375 40 168 58 292 50 332 -4 18
-11 71 -16 118 -10 92 -14 131 -32 256 -17 128 14 230 92 297 132 112 351 51
415 -116 14 -38 17 -64 11 -140 -3 -50 -10 -117 -15 -147 -6 -30 -15 -97 -21
-149 -6 -51 -16 -105 -21 -119 -7 -18 -5 -45 5 -91 8 -36 20 -97 27 -136 18
-116 72 -292 126 -413 8 -18 23 -57 33 -87 10 -30 25 -69 33 -87 27 -60 61
-182 89 -318 20 -97 17 -404 -5 -505 -16 -75 -78 -285 -97 -330 -5 -11 -19
-45 -31 -75 -12 -30 -39 -76 -61 -102 -49 -60 -49 -76 1 -20 58 64 163 341
191 505 7 37 16 70 21 73 35 21 -52 -297 -137 -502 -19 -46 -34 -91 -33 -101
0 -10 6 0 13 22 7 22 24 67 39 100 118 279 173 581 148 814 -24 228 -73 421
-145 576 -13 28 -27 66 -31 85 -4 19 -14 44 -21 55 -25 39 -83 267 -84 330 0
23 -4 45 -9 50 -21 22 -30 113 -21 201 17 163 30 268 40 319 17 92 12 157 -15
213 -14 29 -25 56 -25 61 0 24 -58 74 -118 103 -75 35 -163 45 -220 24z"/>
<path d="M3864 2849 c1 -7 9 -13 18 -15 11 -1 15 3 11 13 -4 11 -8 12 -13 3
-6 -9 -9 -9 -13 -1 -4 8 -5 8 -3 0z"/>
<path d="M2850 2790 c0 -5 -17 -18 -38 -29 -51 -26 -89 -66 -113 -120 -19 -42
-20 -58 -15 -190 4 -79 11 -162 16 -185 24 -106 27 -145 13 -223 -8 -43 -19
-109 -24 -148 -9 -66 -57 -222 -84 -275 -40 -78 -106 -301 -122 -415 -22 -152
-15 -328 22 -530 2 -11 18 -60 36 -110 17 -49 40 -114 50 -144 11 -30 28 -70
39 -88 25 -43 25 -53 0 -53 -20 0 -24 -9 -21 -42 2 -13 -5 -18 -23 -18 -38 0
-36 -37 2 -42 20 -2 28 -9 30 -28 4 -27 70 -102 83 -94 4 2 10 0 14 -6 3 -5
17 -10 30 -10 13 0 31 -10 39 -22 9 -12 16 -18 16 -12 0 17 -35 44 -56 44 -11
0 -25 5 -32 12 -7 7 -12 8 -12 3 0 -5 -16 6 -35 25 -19 19 -35 42 -35 51 0 33
-12 49 -36 49 -30 0 -32 18 -1 22 16 2 23 11 25 31 2 15 9 27 16 27 30 0 35
22 11 59 -14 20 -29 52 -36 71 -6 19 -22 63 -35 97 -26 67 -29 83 -14 83 5 0
16 -21 24 -47 33 -105 78 -203 105 -227 43 -39 270 -60 378 -35 95 22 126 34
146 54 37 39 81 161 134 370 25 99 27 127 28 290 0 99 -6 212 -12 251 -17 97
-74 283 -116 374 -37 83 -79 205 -98 290 -21 95 -29 121 -23 70 12 -93 59
-246 106 -350 56 -122 100 -272 129 -436 16 -95 6 -367 -16 -449 -9 -33 -22
-86 -28 -117 -7 -31 -15 -60 -19 -64 -5 -4 -8 -18 -8 -30 0 -13 -4 -26 -10
-29 -5 -3 -10 -16 -10 -29 0 -12 -4 -26 -8 -32 -5 -5 -15 -24 -22 -43 -26 -66
-53 -83 -173 -110 -62 -14 -217 -13 -289 2 -70 15 -93 35 -130 117 -45 98 -46
102 -59 148 -10 33 -17 42 -30 39 -12 -3 -20 6 -30 37 -7 22 -14 50 -16 61
-36 229 -42 370 -21 515 14 97 67 283 108 385 58 140 88 235 99 311 6 38 16
104 24 147 14 78 11 117 -13 224 -5 23 -12 108 -15 190 l-6 148 30 51 c19 33
48 63 78 82 26 18 53 36 60 41 14 12 133 -1 185 -21 20 -8 51 -32 68 -54 18
-21 38 -42 45 -47 10 -5 13 -35 10 -125 -1 -64 -6 -130 -9 -147 -11 -56 -28
-230 -28 -279 1 -93 59 -309 123 -461 44 -103 70 -167 75 -185 63 -221 80
-371 65 -575 -8 -100 -20 -171 -42 -250 -49 -176 -71 -259 -70 -270 9 -120 8
-118 46 -120 34 -1 32 13 -2 17 -25 3 -28 7 -30 43 -1 22 -2 47 -3 55 -2 15
15 82 70 275 59 212 61 505 4 719 -32 122 -28 109 -69 211 -102 250 -155 434
-157 541 0 49 17 223 28 279 3 17 8 83 9 147 l3 117 -51 55 c-29 31 -59 56
-67 56 -9 0 -24 6 -35 14 -24 16 -175 30 -175 16z"/>
<path d="M3830 2775 c0 -8 7 -15 15 -15 8 0 15 7 15 15 0 8 -7 15 -15 15 -8 0
-15 -7 -15 -15z"/>
<path d="M2837 2746 c-31 -14 -107 -83 -107 -97 0 -5 17 9 37 32 46 51 90 69
168 69 55 0 69 -4 111 -33 28 -19 60 -53 74 -78 21 -38 25 -57 25 -132 0 -88
12 -84 14 4 2 103 -54 200 -136 234 -42 18 -147 18 -186 1z"/>
<path d="M2710 2589 c-16 -59 -6 -198 31 -406 12 -66 7 -106 -33 -308 -19 -94
-70 -251 -117 -357 -23 -54 -73 -230 -66 -236 2 -2 9 16 15 39 27 105 44 157
61 194 40 86 98 265 117 360 40 202 45 242 33 308 -36 203 -47 347 -32 401 6
22 9 42 6 44 -2 2 -9 -16 -15 -39z"/>
<path d="M3127 2358 c-4 -29 -11 -89 -17 -133 -14 -99 -14 -119 -1 -170 l10
-40 -5 45 c-8 60 -7 71 6 165 17 126 23 185 17 185 -2 0 -7 -24 -10 -52z"/>
<path d="M1370 2360 c-25 -3 -51 -9 -59 -14 -29 -18 -40 -71 -35 -164 3 -61 1
-99 -7 -114 -7 -12 -12 -37 -11 -55 1 -18 -3 -35 -8 -38 -6 -4 -20 -25 -31
-48 -18 -34 -22 -62 -24 -166 -2 -69 -6 -139 -10 -154 -4 -16 -3 -39 3 -53 13
-26 19 -20 -97 -97 -114 -74 -105 -30 -111 -550 -3 -249 -3 -555 0 -682 3
-142 6 8 8 395 1 343 5 652 8 686 6 55 11 67 43 98 20 19 65 52 101 74 67 41
69 45 55 103 -10 39 29 60 115 61 39 1 70 5 70 10 0 12 68 10 76 -3 3 -6 18
-9 33 -6 14 3 58 2 98 -2 39 -4 69 -3 67 1 -3 4 -27 8 -53 8 -54 0 -66 7 -49
27 7 9 -6 5 -31 -8 -31 -16 -45 -19 -54 -10 -14 14 -94 15 -99 1 -1 -5 -13 -7
-26 -3 -17 4 -22 11 -19 24 7 28 -2 23 -13 -6 -8 -20 -16 -25 -44 -25 l-35 0
-4 108 -3 107 -2 -110 c-1 -139 -1 -133 -12 -115 -5 8 -8 66 -5 132 4 118 15
159 50 188 9 8 15 26 13 45 -1 17 4 46 11 63 8 19 11 49 8 72 -3 22 -2 50 1
63 5 16 8 10 13 -28 5 -40 6 -32 6 35 0 47 -2 70 -4 53 -2 -18 -9 -33 -15 -33
-19 0 0 72 25 97 20 20 33 24 88 24 77 -1 136 -14 158 -36 12 -12 16 -37 17
-108 1 -103 20 -235 37 -256 9 -11 7 -13 -8 -10 -16 3 -21 15 -26 54 l-6 50 1
-55 c1 -54 2 -55 30 -55 16 -1 32 -7 34 -14 3 -8 1 -11 -4 -8 -5 3 -7 -29 -4
-71 l4 -77 6 70 c5 65 5 62 11 -53 3 -68 11 -128 17 -134 11 -11 -10 -66 -31
-79 -16 -11 0 -38 21 -36 39 3 136 -38 169 -71 32 -31 33 -36 33 -110 0 -89
-7 -122 -24 -116 -7 3 -22 -6 -34 -19 -19 -21 -21 -26 -8 -36 11 -9 16 -9 22
0 4 8 3 9 -4 5 -7 -4 -12 -3 -12 3 0 14 30 42 39 36 5 -2 7 -46 6 -97 -4 -166
-3 -162 -27 -173 -15 -7 -24 -20 -26 -40 -2 -16 -10 -38 -19 -47 -8 -9 -13
-25 -10 -35 4 -14 5 -14 6 5 1 31 19 28 23 -5 2 -16 5 0 6 35 1 68 6 82 28 82
13 0 15 -22 14 -137 -1 -76 1 -145 3 -153 11 -30 18 -191 17 -389 0 -168 -2
-207 -15 -221 -8 -9 -15 -25 -15 -36 0 -12 7 -6 20 19 18 34 20 56 20 241 1
113 -4 266 -11 340 -11 133 -8 459 7 691 8 138 -1 162 -79 198 -29 14 -65 29
-80 32 -39 10 -49 34 -30 73 13 26 13 35 3 47 -8 9 -15 64 -19 140 -6 106 -10
129 -29 154 -27 37 -45 136 -47 251 -1 100 -7 123 -38 138 -34 16 -127 28
-177 22z m286 -817 c-10 -10 -19 5 -10 18 6 11 8 11 12 0 2 -7 1 -15 -2 -18z"/>
<path d="M1475 2320 c11 -5 29 -8 40 -8 16 0 15 2 -5 8 -34 11 -60 11 -35 0z"/>
<path d="M1401 2301 c-6 -10 -11 -46 -12 -80 -1 -36 -6 -61 -13 -61 -7 0 -7
-3 1 -8 8 -5 13 -44 15 -112 3 -87 6 -105 19 -108 18 -3 33 44 18 54 -5 3 -9
-7 -9 -21 0 -15 -4 -24 -10 -20 -6 4 -10 73 -10 174 0 141 3 171 16 182 27 22
34 -7 31 -139 -1 -93 -5 -121 -14 -117 -8 3 -13 -4 -12 -18 0 -12 3 -16 6 -9
9 23 20 12 26 -25 4 -21 2 -42 -5 -50 -8 -10 -7 -13 5 -13 13 0 15 9 10 43 -2
23 -5 98 -4 167 0 153 -4 180 -29 180 -11 0 -24 -8 -29 -19z"/>
<path d="M1553 2255 c0 -22 2 -30 4 -17 2 12 2 30 0 40 -3 9 -5 -1 -4 -23z"/>
<path d="M1478 2240 c-2 -22 0 -40 4 -40 5 0 8 18 8 40 0 22 -2 40 -4 40 -2 0
-6 -18 -8 -40z"/>
<path d="M1281 2024 c0 -11 3 -14 6 -6 3 7 2 16 -1 19 -3 4 -6 -2 -5 -13z"/>
<path d="M1280 1961 c0 -11 -9 -23 -22 -27 -20 -6 -20 -7 -3 -16 14 -8 15 -12
4 -19 -11 -7 -11 -9 -1 -9 7 0 11 -4 7 -9 -5 -9 244 -5 273 5 7 2 10 9 7 15
-5 7 1 9 14 7 12 -1 23 -7 24 -13 3 -17 -81 -32 -210 -38 -108 -4 -122 -3
-126 11 -3 12 -5 10 -6 -6 -1 -22 0 -22 97 -17 127 7 191 14 222 22 22 6 23 4
13 -9 -10 -11 -44 -17 -130 -23 -65 -4 -136 -7 -158 -6 -26 0 -35 -2 -26 -8 7
-5 28 -7 45 -6 17 2 76 7 131 10 136 8 138 9 156 49 9 20 13 33 9 31 -5 -3
-10 0 -12 6 -4 11 -146 15 -157 4 -3 -4 16 -5 43 -4 31 2 51 -1 53 -8 3 -9
-19 -12 -76 -12 -45 0 -102 -3 -128 -7 -39 -6 -45 -4 -40 9 3 9 -1 18 -11 22
-14 5 -14 7 -2 15 8 5 17 7 21 5 3 -3 4 7 1 20 -5 30 -12 33 -12 6z"/>
<path d="M1340 1909 c24 -5 48 -5 52 -1 4 4 -16 8 -45 9 l-52 1 45 -9z"/>
<path d="M2580 1895 c0 -16 6 -25 15 -25 9 0 15 9 15 25 0 16 -6 25 -15 25 -9
0 -15 -9 -15 -25z m17 -7 c-3 -8 -6 -5 -6 6 -1 11 2 17 5 13 3 -3 4 -12 1 -19z"/>
<path d="M1519 1815 c-6 -6 -85 -13 -164 -14 -66 -1 -97 -13 -79 -31 8 -8 37
-8 100 -1 l89 10 -95 -5 c-60 -3 -91 -2 -85 4 6 6 55 13 110 16 55 3 120 9
144 12 35 6 43 4 39 -7 -3 -10 -20 -13 -59 -12 l-54 2 55 -9 c61 -9 70 -7 70
21 0 15 -7 19 -33 19 -19 0 -36 -2 -38 -5z"/>
<path d="M1484 1749 c-4 -6 -37 -10 -83 -9 -107 3 -111 2 -105 -15 7 -17 25
-21 22 -4 -2 7 26 12 82 14 47 2 104 6 128 10 41 7 43 6 37 -16 -4 -15 0 -32
10 -44 16 -20 16 -20 5 2 -6 13 -8 34 -4 48 6 24 4 25 -39 25 -25 0 -49 -5
-53 -11z"/>
<path d="M1633 1700 c0 -25 2 -35 4 -22 2 12 2 32 0 45 -2 12 -4 2 -4 -23z"/>
<path d="M1216 1545 c4 -8 8 -15 10 -15 2 0 4 7 4 15 0 8 -4 15 -10 15 -5 0
-7 -7 -4 -15z"/>
<path d="M1755 1480 c3 -5 12 -10 20 -10 7 0 25 -14 39 -31 26 -30 38 -28 14
3 -25 30 -89 64 -73 38z"/>
<path d="M2504 1173 c-11 -105 1 -391 19 -443 9 -25 21 -65 27 -88 6 -24 13
-42 15 -40 2 2 -5 37 -16 78 -34 127 -41 199 -37 383 2 97 3 177 2 177 -1 0
-6 -30 -10 -67z"/>
<path d="M1812 900 c0 -19 2 -27 5 -17 2 9 2 25 0 35 -3 9 -5 1 -5 -18z"/>
<path d="M1810 800 c0 -35 3 -60 7 -56 7 7 5 108 -3 115 -2 2 -4 -24 -4 -59z"/>
<path d="M1750 780 c-20 -38 -23 -113 -7 -153 15 -35 46 -51 48 -24 3 61 0
177 -5 186 -11 17 -24 13 -36 -9z m31 -17 c4 -82 -1 -158 -9 -161 -12 -4 -32
51 -32 87 0 37 19 101 30 101 6 0 11 -12 11 -27z"/>
<path d="M1810 700 c0 -5 5 -10 11 -10 5 0 7 5 4 10 -3 6 -8 10 -11 10 -2 0
-4 -4 -4 -10z"/>
<path d="M1819 642 c11 -8 11 -10 0 -15 -10 -4 -8 -6 4 -6 21 -1 18 21 -4 27
-12 3 -12 2 0 -6z"/>
<path d="M1842 305 c0 -16 2 -22 5 -12 2 9 2 23 0 30 -3 6 -5 -1 -5 -18z"/>
<path d="M3316 225 c-7 -19 3 -45 16 -45 7 0 6 5 -1 14 -6 7 -9 21 -5 30 3 9
4 16 1 16 -3 0 -7 -7 -11 -15z"/>
<path d="M3331 158 c-64 -80 -74 -88 -106 -88 -18 0 -40 -3 -49 -6 -17 -7 -22
-34 -6 -34 6 0 10 -8 11 -17 0 -12 2 -13 6 -5 3 7 0 19 -6 26 -15 18 -4 26 39
26 32 0 44 7 87 55 28 30 47 55 42 55 -4 0 -13 -6 -18 -12z"/>
<path d="M3756 54 c-8 -20 -8 -24 2 -24 4 0 8 9 9 20 2 24 -3 26 -11 4z"/>
<path d="M1797 23 c-4 -3 -7 -11 -7 -17 0 -6 5 -5 12 2 6 6 9 14 7 17 -3 3 -9
2 -12 -2z"/>
</g>
</svg>
